<?xml version="1.0" encoding="UTF-8"?>
<svg id="_Слой_1" data-name="Слой_1" xmlns="http://www.w3.org/2000/svg" version="1.1" viewBox="0 0 1080 1080">
  <!-- Generator: Adobe Illustrator 29.3.1, SVG Export Plug-In . SVG Version: 2.1.0 Build 151)  -->
  <defs>
    <style>
      .st0 {
        fill: #00d862;
      }

      .st1 {
        fill: #134229;
      }
    </style>
  </defs>
  <path class="st1" d="M432.59,0h217.78v25.19h81.48v26.67h54.81v26.67h53.33v26.67h26.67v1.48h1.48v25.19h-1.48v1.48h28.15v26.67h26.67v26.67h26.67v28.15h28.15v26.67h26.67v53.33h26.67v54.81h26.67v81.48h25.19v217.78h-25.19v81.48h-26.67v54.81h-26.67v53.33h-26.67v28.15h-28.15v26.67h-26.67v26.67h-26.67v26.67h-26.67v28.15h-28.15v26.67h-53.33v26.67h-54.81v28.15h-81.48v23.7h-217.78v-23.7h-81.48v-28.15h-54.81v-26.67h-53.33v-26.67h-26.67v-1.48h-1.48v-26.67h-26.67v-26.67h-26.67v-26.67h-26.67v-26.67h-26.67v-1.48h-1.48v-26.67h-26.67v-53.33h-26.67v-54.81h-26.67v-81.48H0v-217.78h26.67v-81.48h26.67v-54.81h26.67v-53.33h28.15v-1.48h-1.48v-25.19h28.15v-28.15h26.67v-26.67h26.67v-26.67h28.15v-1.48h-1.48v-25.19h1.48v-1.48h26.67v-26.67h53.33v-26.67h54.81v-26.67h81.48V0Z"/>
  <path class="st0" d="M514.07,133.33h54.81v28.15h53.33v26.67h54.81v26.67h26.67v28.15h54.81v26.67h53.33v26.67h54.81v26.67h26.67v271.11h-26.67v217.78h-53.33v26.67h-54.81v26.67h-54.81v26.67h-26.67v28.15h-53.33v26.67h-164.44v-26.67h-53.33v-28.15h-26.67v-26.67h-54.81v-26.67h-54.81v-26.67h-53.33v-217.78h-26.67v-271.11h26.67v-26.67h54.81v-26.67h53.33v-28.15h54.81v-26.67h26.67v-26.67h54.81v-26.67h53.33v-28.15Z"/>
  <path class="st1" d="M487.41,214.81h108.15v26.67h54.81v28.15h26.67v26.67h54.81v26.67h53.33v28.15h53.33v26.67h-53.33v26.67h-54.81v26.67h-53.33v28.15h-26.67v26.67h-54.81v26.67h-108.15v-26.67h-54.81v-26.67h-26.67v-28.15h-53.33v-26.67h-54.81v-26.67h-54.81v-26.67h54.81v-28.15h53.33v-26.67h54.81v-26.67h28.15v-26.67h53.33v-28.15Z"/>
  <path class="st1" d="M811.85,431.11h28.15v136.3h-28.15v189.63h-26.67v26.67h-54.81v26.67h-53.33v28.15h-26.67v26.67h-54.81v26.67h-26.67v-324.44h54.81v-26.67h53.33v-28.15h26.67v-26.67h54.81v-26.67h53.33v-28.15Z"/>
  <path class="st1" d="M244.44,432.59h26.67v26.67h53.33v26.67h54.81v26.67h26.67v28.15h53.33v26.67h54.81v324.44h-26.67v-26.67h-54.81v-26.67h-26.67v-28.15h-53.33v-26.67h-54.81v-26.67h-26.67v-189.63h-26.67v-134.81Z"/>
</svg>