<?xml version="1.0" encoding="UTF-8"?>
<svg id="svg" xmlns="http://www.w3.org/2000/svg" version="1.1" xmlns:bx="https://boxy-svg.com" viewBox="0 0 5111.4 977.7">
  <!-- Generator: Adobe Illustrator 29.3.1, SVG Export Plug-In . SVG Version: 2.1.0 Build 151)  -->
  <defs>
    <style>
      .st0 {
        fill: #fff;
      }

      .st1 {
        fill: #00d862;
      }

      .st2 {
        fill: #1bd96a;
      }

      .st3 {
        fill: #134229;
      }
    </style>
  </defs>
  <g>
    <path class="st3" d="M386.4-3.2h3204.4v22.9h73.1v24.3h49.2v24.2h47.9v24.3h23.9v1.3h1.3v22.9h-1.3v1.4h25.3v24.2h23.9v24.3h23.9v25.6h25.3v24.2h23.9v48.4h23.9v49.8h23.9v73.9h22.6v197.9h-22.6v74h-23.9v49.8h-23.9v48.4h-23.9v25.6h-25.3v24.2h-23.9v24.2h-23.9v24.2h-23.9v25.6h-25.2v24.2h-47.9v24.2h-49.2v25.6h-73.1v21.5H386.4v-21.5h-73.1v-25.6h-49.2v-24.2h-47.8v-24.2h-23.9v-1.3h-1.4v-24.2h-23.9v-24.2h-24v-24.2h-23.9v-24.2h-24v-1.3h-1.3v-24.2h-24v-48.4h-23.9v-49.8h-24v-74H-1.6v-197.9h23.9v-73.9h24v-49.8h23.9v-48.4h25.3v-1.3h-1.3v-22.9h25.3v-25.6h23.9v-24.3h24v-24.2h25.3v-1.4h-1.4v-22.9h1.4v-1.3h23.9v-24.3h47.8v-24.2h49.2v-24.3h73.1V-3.2Z"/>
    <path class="st2" d="M473.5,102.4h51.1v26.3h49.8v24.9h51.1v24.9h24.9v26.3h51.1v24.9h49.8v24.9h51.1v24.9h24.9v252.9h-24.9v203.2h-49.7v24.9h-51.1v24.9h-51.1v24.9h-24.9v26.3h-49.8v24.9h-153.4v-24.9h-49.8v-26.3h-24.9v-24.9h-51.1v-24.9h-51.1v-24.9h-49.8v-203.2h-24.9v-252.9h24.9v-24.9h51.1v-24.9h49.8v-26.3h51.1v-24.9h24.9v-24.9h51.1v-24.9h49.8v-26.3Z"/>
    <path class="st3" d="M437.4,175.7h100.9v24.9h51.1v26.3h24.9v24.9h51.1v24.9h49.8v26.3h49.8v24.9h-49.8v24.9h-51.1v24.9h-49.8v26.3h-24.9v24.9h-51.1v24.9h-100.9v-24.9h-51.1v-24.9h-24.9v-26.3h-49.8v-24.9h-51.1v-24.9h-51.1v-24.9h51.1v-26.3h49.8v-24.9h51.1v-24.9h26.3v-24.9h49.8v-26.3Z"/>
    <path class="st3" d="M740.1,377.5h26.3v127.2h-26.3v176.9h-24.9v24.9h-51.1v24.9h-49.8v26.3h-24.9v24.9h-51.1v24.9h-24.9v-302.7h51.1v-24.9h49.8v-26.3h24.9v-24.9h51.1v-24.9h49.8v-26.3Z"/>
    <path class="st3" d="M210.8,378.8h24.9v24.9h49.8v24.9h51.1v24.9h24.9v26.3h49.8v24.9h51.1v302.7h-24.9v-24.9h-51.1v-24.9h-24.9v-26.3h-49.8v-24.9h-51.1v-24.9h-24.9v-176.9h-24.9v-125.8Z"/>
  </g>
  <path class="st1" d="M4102.8,333.9h292v291h-59v-116h-174v116h-59v-291ZM4161.8,391.9v58h174v-58h-174Z"/>
  <path class="st1" d="M4802.8,333.9h292v175h-233v116h-59v-291ZM4861.8,391.9v58h174v-58h-174Z"/>
  <path class="st1" d="M4452.8,333.9h292v175h-233v116h-59v-291ZM4511.8,391.9v58h174v-58h-174Z"/>
  <g id="smetana">
    <path class="st0" d="M1300.8,333.9h292v58h-233v58h233v175h-292v-58h233v-58h-233v-175Z"/>
    <path class="st0" d="M1651.8,333.9h291v291h-58v-233h-58v233h-59v-233h-58v233h-58v-291Z"/>
    <path class="st0" d="M3401.8,333.9h292v291h-59v-116h-174v116h-59v-291ZM3460.8,391.9v58h174v-58h-174Z"/>
    <path class="st0" d="M2701.8,333.9h292v291h-59v-116h-174v116h-59v-291ZM2760.8,391.9v58h174v-58h-174Z"/>
    <path class="st0" d="M2000.8,333.9h292v58h-233v58h116v59h-116v58h233v58h-292v-291Z"/>
    <path class="st0" d="M3051.8,333.9h292v291h-59v-233h-174v233h-59v-291Z"/>
    <path class="st0" d="M2350.8,333.9h292v58h-117v233h-59v-233h-116v-58Z"/>
  </g>
</svg>